# Blender 4.3.2
# www.blender.org
o Pyramid
v -1.000000 0.000000 1.000000
v -1.000000 0.000000 -1.000000
v 1.000000 0.000000 1.000000
v 1.000000 0.000000 -1.000000
v 0.000000 1.000000 0.000000
vn -0.7071 0.7071 -0.0000
vn -0.0000 0.7071 -0.7071
vn -0.0000 0.7071 0.7071
vn 0.7071 0.7071 -0.0000
vn -0.0000 -1.0000 -0.0000
vt 0.001113 0.001113
vt -0.704420 0.500000
vt 0.001113 0.998887
vt 0.998887 0.998887
vt 0.500000 1.704420
vt 0.998887 0.001113
vt 0.500000 -0.704420
vt 1.704420 0.500000
s 0
f 1/1/1 5/2/1 2/3/1
f 4/4/2 2/3/2 5/5/2
f 1/1/3 3/6/3 5/7/3
f 3/6/4 4/4/4 5/8/4
f 1/1/5 4/4/5 3/6/5
f 1/1/5 2/3/5 4/4/5
